<svg width="136" height="32" viewBox="0 0 136 32" fill="none" xmlns="http://www.w3.org/2000/svg">
<g clip-path="url(#clip0_5_5686)">
<path d="M135.473 29.037C134.266 29.0424 133.058 29.0297 131.852 29.057C131.206 29.0715 130.924 28.83 130.928 28.1599C130.946 25.1726 130.942 22.1835 130.928 19.1963C130.924 18.5879 131.155 18.2865 131.779 18.3301C131.87 18.3355 131.961 18.3301 132.052 18.3301C133.126 18.3167 133.663 18.8349 133.663 19.8845C133.663 21.8167 133.663 23.7471 133.663 25.6793C133.663 26.5715 134.115 27.0231 135.019 27.034C135.17 27.034 135.321 27.0394 135.471 27.0412V29.0388L135.473 29.037Z" fill="#C4C4C4"/>
<path d="M0.00195312 3.97668C0.123623 4.03661 0.245292 4.09654 0.366962 4.15647C0.114543 4.57232 0.187182 5.03539 0.187182 5.48212C0.181734 11.4585 0.181734 17.4366 0.179918 23.413C0.119991 23.413 0.06188 23.4111 0.00376909 23.4075V3.97668H0.00195312Z" fill="#DBDBDB"/>
<path d="M0.17746 23.413C0.17746 17.4366 0.17746 11.4585 0.184724 5.48213C0.184724 5.03359 0.112085 4.57052 0.364504 4.15648C2.51461 5.3314 4.66652 6.50089 6.81118 7.68671C7.89168 8.28416 7.97521 8.24421 7.97884 6.96759C7.98248 4.9101 8.00427 2.85261 7.96795 0.795125C7.95342 -0.0129794 8.17678 -0.0620105 8.83053 0.301182C13.3795 2.82719 17.9521 5.3078 22.4884 7.8556C23.3401 8.33319 23.9902 8.4131 24.8818 7.90463C29.3981 5.32414 33.9599 2.81993 38.5034 0.284839C39.3206 -0.170968 39.4059 -0.134649 39.4077 0.798757C39.415 2.94704 39.4005 5.09533 39.4114 7.24362C39.4168 8.15705 39.5439 8.22787 40.3375 7.79385C42.3805 6.67522 44.4271 5.56203 46.4501 4.40889C47.0675 4.0566 47.2309 4.19098 47.2291 4.85744C47.2164 10.7884 47.2073 16.7193 47.2218 22.6503C47.2218 23.3149 46.8586 23.6272 46.3611 23.9015C42.8944 25.8209 39.4314 27.7459 35.9647 29.6671C34.6953 30.3717 33.4078 31.0455 32.1584 31.7846C31.639 32.0933 31.245 32.0424 30.7438 31.7555C28.59 30.5261 26.4 29.3602 24.2535 28.1163C23.6434 27.7622 23.2202 28.0364 22.7499 28.2961C20.6597 29.4547 18.5714 30.6133 16.4866 31.7846C16.0581 32.0243 15.6731 32.0951 15.2136 31.8354C10.2034 29.0207 5.18771 26.2186 0.173828 23.413H0.17746ZM37.5918 10.7866H37.599C37.599 8.48573 37.6045 6.18672 37.5972 3.8859C37.5936 2.90346 37.461 2.82537 36.6384 3.29571C32.6996 5.54932 28.748 7.78114 24.8364 10.082C23.9339 10.6122 23.2457 10.585 22.3558 10.062C18.4442 7.76298 14.4927 5.53116 10.5521 3.27936C9.78754 2.84172 9.635 2.92707 9.64953 3.85139C9.67314 5.3314 9.76938 6.81142 9.78028 8.29143C9.80207 11.3168 9.79118 14.344 9.78754 17.3713C9.78754 17.8725 9.82386 18.3119 10.3505 18.5988C14.598 20.9196 18.8365 23.255 23.075 25.5939C23.4817 25.8191 23.8286 25.83 24.259 25.5939C28.4429 23.2822 32.6342 20.985 36.8382 18.7096C37.3957 18.4082 37.6063 18.0323 37.6009 17.4148C37.5773 15.2066 37.5918 12.9966 37.5918 10.7866ZM45.5602 14.8834C45.5602 12.6752 45.5657 10.4688 45.5584 8.26056C45.5548 7.2418 45.4422 7.17461 44.5342 7.68489C43.1105 8.4821 41.714 9.33197 40.274 10.1001C39.5875 10.467 39.3787 10.9554 39.395 11.7054C39.4386 13.7302 39.3514 15.7605 39.4332 17.7835C39.4767 18.8712 39.0954 19.4651 38.1384 19.9808C34.2776 22.0564 30.4641 24.2156 26.6324 26.3476C26.4272 26.462 26.133 26.5292 26.1258 26.8106C26.1167 27.1048 26.4218 27.1611 26.6252 27.2737C27.9744 28.0182 29.3527 28.7156 30.6711 29.5128C31.3376 29.9159 31.8606 29.8633 32.5071 29.5037C36.573 27.2374 40.648 24.9874 44.7412 22.7683C45.3696 22.4287 45.5802 22.0074 45.5711 21.3282C45.5421 19.1818 45.5602 17.0335 45.5602 14.887V14.8834ZM1.82454 14.7799C1.82454 16.9881 1.83725 19.1963 1.81546 21.4045C1.81001 22.0092 1.98434 22.4124 2.54911 22.7193C6.7458 25.0001 10.9316 27.3046 15.112 29.6163C15.5859 29.8778 15.9927 29.8887 16.4685 29.6217C17.8922 28.8227 19.3341 28.0564 20.7669 27.2719C20.9703 27.1611 21.2772 27.1012 21.2663 26.8088C21.2572 26.531 20.9612 26.462 20.756 26.3476C16.8171 24.1611 12.8874 21.9584 8.92859 19.8065C8.2131 19.4178 7.9516 18.9475 7.96613 18.1557C8.0079 16.0093 7.95524 13.861 7.99337 11.7127C8.00608 10.9682 7.81541 10.4906 7.109 10.1201C5.63625 9.35195 4.2198 8.47484 2.77611 7.64858C1.95529 7.18006 1.8318 7.25269 1.82817 8.24421C1.82091 10.4216 1.82636 12.6007 1.82636 14.7781L1.82454 14.7799Z" fill="#C4C4C4"/>
<path d="M62.466 22.6593C62.466 21.537 62.5096 20.4946 62.4533 19.4595C62.4061 18.5879 62.7312 18.2719 63.5992 18.3155C64.6979 18.3718 64.8068 18.419 64.8105 19.4995C64.8177 22.3088 64.8195 25.1181 64.8068 27.9274C64.8068 28.3832 64.9412 28.9244 64.213 29.0442C62.9763 29.2476 62.3244 29.0478 62.0829 28.2833C61.7197 27.1393 61.391 25.9843 60.8317 24.8511C60.8317 25.879 60.7863 26.9104 60.8444 27.9365C60.8952 28.8245 60.532 29.086 59.6822 29.0733C58.8868 29.0606 58.4546 28.9207 58.4691 27.9819C58.5145 25.1126 58.4818 22.2434 58.4891 19.3724C58.4891 18.9365 58.3874 18.3445 59.0666 18.3627C59.753 18.3827 60.6483 17.9323 61.0133 18.9729C61.342 19.9135 61.6234 20.8706 61.9412 21.8149C62.0302 22.08 61.9993 22.4196 62.4642 22.6575L62.466 22.6593Z" fill="#C4C4C4"/>
<path d="M89.1777 22.5322C89.1777 21.4626 89.2249 20.3894 89.1632 19.3216C89.1087 18.3755 89.6371 18.3192 90.3562 18.3155C91.0881 18.3101 91.5548 18.4009 91.5384 19.3325C91.4912 22.2344 91.5239 25.1381 91.5185 28.0418C91.5185 28.4922 91.5711 29.0715 90.901 29.0188C90.1964 28.9644 89.2431 29.5146 88.8817 28.396C88.4949 27.1938 88.1553 25.9771 87.7957 24.7677C87.7104 24.7713 87.625 24.7749 87.5397 24.7804C87.5397 25.7483 87.5397 26.7162 87.5397 27.6841C87.5379 28.9716 86.8878 29.4202 85.642 29.0206C85.2715 28.9026 85.2007 28.6338 85.2007 28.3215C85.1971 25.2362 85.2007 22.1527 85.2044 19.0673C85.2044 18.5934 85.4531 18.3809 85.9326 18.3301C87.3654 18.1793 87.5524 18.2883 88.0118 19.6811C88.3296 20.6418 88.6438 21.6024 88.9598 22.5613C89.0306 22.5522 89.1032 22.5413 89.1741 22.5322H89.1777Z" fill="#C4C4C4"/>
<path d="M118.932 24.7459C118.932 25.8772 118.901 27.0104 118.941 28.1417C118.975 29.0588 118.409 29.0606 117.755 29.0606C117.099 29.0606 116.563 29.0515 116.574 28.1363C116.607 25.2035 116.583 22.2707 116.587 19.3379C116.587 18.8894 116.525 18.3246 117.203 18.3591C117.86 18.3918 118.719 17.9451 119.066 18.9584C119.38 19.8736 119.674 20.7943 119.983 21.7114C120.074 21.982 120.114 22.2852 120.593 22.6884C120.422 21.4753 120.392 20.5001 120.424 19.525C120.437 19.1182 120.295 18.5843 120.809 18.419C121.352 18.2447 121.951 18.2338 122.5 18.4463C122.798 18.5607 122.767 18.8966 122.767 19.1654C122.77 22.189 122.765 25.2126 122.772 28.2361C122.772 28.8082 122.523 29.0297 121.955 29.0606C120.466 29.1405 120.437 29.1423 119.988 27.7113C119.676 26.7162 119.376 25.7174 119.071 24.7204C119.024 24.7295 118.977 24.7386 118.932 24.7477V24.7459Z" fill="#C4C4C4"/>
<path d="M115.479 23.7544C115.479 24.6605 115.521 25.5685 115.47 26.471C115.37 28.2343 114.182 29.3257 112.386 29.3711C110.48 29.4184 109.328 28.445 109.121 26.6127C108.894 24.5952 108.911 22.5794 109.138 20.5619C109.248 19.5722 109.757 18.8876 110.654 18.4754C113.173 17.3168 115.437 18.7241 115.49 21.4899C115.504 22.2453 115.492 22.9989 115.492 23.7544C115.488 23.7544 115.483 23.7544 115.479 23.7544ZM111.858 23.6854C111.858 24.7132 111.851 25.7428 111.863 26.7707C111.867 27.0649 111.858 27.448 112.285 27.439C112.606 27.4317 112.728 27.1193 112.73 26.8415C112.742 24.7858 112.744 22.7302 112.73 20.6745C112.728 20.3749 112.624 20.0244 112.223 20.0571C111.865 20.0861 111.865 20.4275 111.863 20.6926C111.852 21.6914 111.86 22.6884 111.86 23.6872L111.858 23.6854Z" fill="#C4C4C4"/>
<path d="M78.9399 6.93305C80.1403 7.37252 80.1385 8.34406 80.1058 9.34284C80.0822 10.0983 80.0822 10.8555 80.1058 11.6128C80.1239 12.223 79.8752 12.5208 79.2523 12.4899C78.9799 12.4772 78.7075 12.479 78.4351 12.4899C77.8304 12.5099 77.5489 12.232 77.5562 11.6182C77.5689 10.5904 77.5616 9.56075 77.5471 8.5311C77.5416 8.17154 77.5471 7.69757 77.0622 7.7012C76.5247 7.70484 76.6609 8.21694 76.6536 8.54926C76.6318 9.5771 76.6264 10.6067 76.65 11.6346C76.6627 12.2611 76.3867 12.5226 75.7783 12.4917C75.5368 12.479 75.2917 12.4717 75.0519 12.4954C74.1803 12.5807 73.8879 12.1921 73.8988 11.3313C73.9351 8.45665 73.9388 5.58197 73.8988 2.7073C73.8861 1.86106 74.1966 1.58867 75.0102 1.61591C76.0979 1.65404 77.1857 1.63043 78.268 1.79206C78.8074 1.87196 79.2505 2.07716 79.5864 2.50573C80.5089 3.67703 80.2256 5.99238 78.9417 6.93487L78.9399 6.93305ZM76.6427 4.61225C76.6427 4.80111 76.63 4.92278 76.6445 5.04082C76.6863 5.34227 76.5229 5.80715 76.9841 5.83984C77.518 5.87616 77.5289 5.40038 77.5525 5.00631C77.558 4.91733 77.5616 4.82653 77.5562 4.73755C77.5235 4.2763 77.6451 3.58623 77.0223 3.59349C76.3794 3.60257 76.768 4.30535 76.6427 4.61406V4.61225Z" fill="#C4C4C4"/>
<path d="M82.9379 23.5745C84.0075 24.014 84.1346 24.8421 84.1001 25.7682C84.0692 26.5836 84.0819 27.4008 84.0946 28.2161C84.1037 28.7755 83.8785 29.0715 83.2938 29.0497C82.9923 29.0388 82.6891 29.0351 82.3876 29.0515C81.7502 29.086 81.5359 28.7609 81.5468 28.1653C81.565 27.2283 81.5595 26.2912 81.5414 25.3542C81.5341 24.9765 81.6122 24.4353 81.0892 24.4099C80.4899 24.3808 80.6606 24.9547 80.6497 25.3052C80.6243 26.2422 80.6207 27.1792 80.6443 28.1144C80.6606 28.7519 80.4336 29.0351 79.7581 29.0587C77.9076 29.1223 77.9076 29.1459 77.9076 27.2718C77.9076 24.6423 77.9276 22.0128 77.8967 19.3851C77.8877 18.6188 78.1201 18.2701 78.93 18.3155C80.0741 18.3809 81.2254 18.2501 82.364 18.4898C83.1431 18.6533 83.7042 19.0709 83.9312 19.8282C84.1963 20.7108 84.1437 21.6169 83.982 22.5195C83.8858 23.057 83.4046 23.2386 82.9397 23.5691L82.9379 23.5745ZM81.5414 21.5788C81.5414 21.2319 81.5468 21.1121 81.5414 20.9922C81.525 20.6418 81.4488 20.264 81.0402 20.2586C80.539 20.2513 80.6661 20.7089 80.6461 21.0122C80.6261 21.3409 80.6461 21.6732 80.6661 22.0019C80.6806 22.2271 80.7714 22.4214 81.0347 22.4323C81.2799 22.4432 81.4342 22.2906 81.4833 22.0673C81.5341 21.8348 81.5414 21.5915 81.5432 21.5788H81.5414Z" fill="#C4C4C4"/>
<path d="M69.8722 8.12433C70.0429 6.29566 70.2317 4.46698 70.3788 2.63649C70.4388 1.89194 70.7366 1.60321 71.5174 1.61229C73.3552 1.63226 73.3861 1.59957 73.1682 3.39012C72.8286 6.1758 72.4363 8.95605 72.0858 11.7417C72.0205 12.2665 71.7644 12.4881 71.2578 12.4845C70.3516 12.4808 69.4454 12.4772 68.5393 12.4845C67.9818 12.4899 67.7094 12.1939 67.6313 11.6764C67.1609 8.54201 66.6942 5.40584 66.2257 2.26967C66.1985 2.08988 66.1458 1.84473 66.3292 1.77391C67.0847 1.48698 67.8837 1.5687 68.6446 1.70127C69.2094 1.79933 69.1331 2.39133 69.1803 2.82717C69.3655 4.59228 69.538 6.3574 69.716 8.12433H69.874H69.8722Z" fill="#C4C4C4"/>
<path d="M62.9549 1.62866C65.2176 1.64864 64.8653 1.41801 65.2067 3.57538C65.6226 6.20126 65.9748 8.83623 66.398 11.4603C66.5233 12.2357 66.2799 12.5462 65.5136 12.4936C65.2721 12.4772 65.0269 12.47 64.789 12.4954C64.039 12.5789 63.6631 12.2593 63.5996 11.5021C63.5669 11.1153 63.6795 10.5632 63.0348 10.5505C62.3847 10.5378 62.4755 11.0771 62.4573 11.4748C62.4228 12.2375 62.0524 12.568 61.2969 12.4954C61.0572 12.4718 60.8121 12.4736 60.5724 12.4954C59.7661 12.5662 59.4846 12.2176 59.5954 11.4222C59.9949 8.58017 60.3563 5.73456 60.7558 2.89257C60.9337 1.63229 60.9592 1.63593 62.2303 1.63048C62.4719 1.63048 62.7134 1.63048 62.9549 1.63048V1.62866ZM63.1383 4.97004C63.0602 4.9664 62.9821 4.96277 62.9022 4.95914C62.7679 5.98698 62.6262 7.013 62.5045 8.04265C62.4646 8.38223 62.5881 8.64555 62.9894 8.6401C63.3508 8.63465 63.4361 8.39495 63.4089 8.08623C63.3199 7.0475 63.2273 6.00877 63.1365 4.97004H63.1383Z" fill="#C4C4C4"/>
<path d="M95.529 18.3392C97.6083 18.3719 97.4249 17.9851 97.7608 20.1951C98.1604 22.8246 98.5381 25.4577 98.9485 28.0855C99.0556 28.7646 98.9285 29.1496 98.1386 29.057C97.8099 29.0189 97.4721 29.0334 97.1416 29.0534C96.5514 29.086 96.2136 28.8645 96.2263 28.2307C96.2282 28.1109 96.1991 27.991 96.1719 27.873C96.0938 27.5279 95.9612 27.2301 95.5308 27.241C95.0768 27.2537 95.0242 27.577 94.9824 27.9293C94.9352 28.3252 95.1095 28.8936 94.5393 28.9862C93.802 29.1042 93.0339 29.1768 92.3039 28.9153C92.0823 28.8354 92.1041 28.5631 92.1332 28.3488C92.5436 25.2326 92.9594 22.1164 93.3662 19.0002C93.4225 18.5716 93.644 18.3446 94.0781 18.3392C94.5611 18.3355 95.046 18.3392 95.529 18.3392ZM95.6525 21.5244C95.5708 21.5425 95.4909 21.5589 95.4092 21.577C95.3093 22.6158 95.2094 23.6563 95.1095 24.695C95.0787 25.0201 95.1912 25.2217 95.5508 25.2108C95.845 25.2017 95.9993 25.0473 95.9721 24.7532C95.8704 23.6763 95.7596 22.5994 95.6507 21.5244H95.6525Z" fill="#C4C4C4"/>
<path d="M126.776 18.3283C129.064 18.3519 128.751 18.0631 129.109 20.3948C129.507 22.9899 129.85 25.5921 130.255 28.1853C130.357 28.8391 130.161 29.0915 129.518 29.0552C129.187 29.037 128.851 29.0298 128.523 29.057C127.8 29.1206 127.447 28.8354 127.48 28.08C127.496 27.7277 127.513 27.3046 127.001 27.2501C126.436 27.1902 126.42 27.6333 126.32 28.0164C126.22 28.3978 126.32 28.9607 125.737 29.008C125.025 29.0661 124.264 29.2331 123.607 28.9008C123.278 28.7338 123.474 28.2217 123.518 27.8802C123.825 25.4868 124.157 23.0952 124.482 20.7054C124.498 20.5855 124.529 20.4675 124.542 20.3476C124.796 17.8943 124.747 18.3864 126.776 18.3283ZM127.013 21.3845C126.937 21.3864 126.861 21.3882 126.783 21.3918C126.658 22.456 126.523 23.5201 126.412 24.5879C126.383 24.8676 126.454 25.1527 126.812 25.1781C127.168 25.2035 127.297 24.9529 127.277 24.6569C127.202 23.5655 127.102 22.4759 127.012 21.3864L127.013 21.3845Z" fill="#C4C4C4"/>
<path d="M72.2655 23.718C72.2655 22.2362 72.2873 20.7562 72.2564 19.2743C72.2419 18.5679 72.5233 18.2955 73.2207 18.321C74.1559 18.3555 75.0947 18.3482 76.0318 18.3264C76.7836 18.3101 76.8435 18.7804 76.8254 19.3452C76.809 19.8881 76.9143 20.4511 76.0663 20.4965C75.0729 20.5491 74.7624 21.0849 75.0276 22.0473C75.1619 22.5322 75.5324 22.5231 75.8883 22.5104C76.6274 22.485 76.7981 22.8863 76.809 23.5382C76.8181 24.2192 76.5947 24.5552 75.8702 24.5188C74.6753 24.4607 75.0766 25.3778 75.0039 25.9952C74.9222 26.698 75.171 27.1157 75.9555 27.0285C76.7255 26.945 77.0287 27.2573 77.0306 28.0582C77.0324 28.8989 76.6438 29.0896 75.9137 29.0588C75.0984 29.0242 74.2812 29.0551 73.4658 29.0497C72.3272 29.0424 72.2727 28.9934 72.2673 27.8875C72.26 26.4964 72.2673 25.1072 72.2673 23.7162L72.2655 23.718Z" fill="#C4C4C4"/>
<path d="M67.0296 24.764C67.0296 23.6454 67.0168 22.5267 67.0332 21.4063C67.0423 20.8324 66.8734 20.4765 66.2215 20.4838C65.1991 20.4929 65.4315 19.7192 65.397 19.1163C65.3589 18.4426 65.7657 18.321 66.325 18.3264C67.7759 18.3409 69.2287 18.3446 70.6797 18.3264C71.2844 18.3191 71.6022 18.5443 71.5477 19.1763C71.5005 19.7301 71.7892 20.5092 70.7868 20.482C70.0259 20.462 69.8915 20.8778 69.897 21.5152C69.9151 23.6617 69.877 25.81 69.9151 27.9565C69.9297 28.7718 69.6645 29.0824 68.8219 29.0715C67.0296 29.0479 67.0296 29.086 67.0296 27.3063C67.0296 26.4601 67.0296 25.6121 67.0296 24.7658V24.764Z" fill="#C5C5C5"/>
<path d="M100.059 24.706C100.059 23.6164 100.041 22.5268 100.064 21.439C100.079 20.8143 99.8918 20.462 99.1981 20.482C98.203 20.5111 98.4627 19.7502 98.4209 19.1872C98.3737 18.5662 98.6697 18.3192 99.2835 18.3265C100.705 18.3446 102.127 18.3501 103.549 18.3247C104.23 18.3119 104.477 18.6225 104.432 19.2617C104.394 19.8119 104.59 20.5165 103.665 20.4802C102.899 20.4493 102.776 20.8779 102.781 21.5135C102.799 23.6309 102.79 25.7501 102.786 27.8675C102.783 29.0043 102.737 29.0425 101.613 29.0534C100.578 29.0631 100.06 28.5522 100.059 27.5207C100.059 26.5818 100.059 25.6448 100.059 24.706Z" fill="#C4C4C4"/>
<path d="M54.5019 6.9712C54.5019 5.55293 54.5219 4.13284 54.491 2.71639C54.4747 1.9664 54.718 1.62318 55.5261 1.61592C57.3729 1.59957 57.3729 1.5687 57.3729 3.4337C57.3729 5.39494 57.3875 7.358 57.3657 9.31924C57.3584 9.96572 57.5091 10.3689 58.2628 10.338C59.1889 10.298 58.991 11.0081 59.0236 11.5529C59.0563 12.1086 58.9183 12.5026 58.2464 12.4917C57.2803 12.4754 56.3142 12.479 55.3499 12.4917C54.7253 12.499 54.4983 12.1794 54.5019 11.5892C54.5128 10.0493 54.5055 8.51113 54.5037 6.9712H54.5019Z" fill="#C5C5C5"/>
<path d="M54.4998 23.7761C54.4998 22.2979 54.5198 20.8179 54.4926 19.3397C54.4799 18.6097 54.7686 18.3264 55.5095 18.3173C57.3727 18.2919 57.3727 18.2647 57.3727 20.0843C57.3727 22.7101 57.3491 25.336 57.3854 27.9619C57.3963 28.7809 57.1239 29.0805 56.2886 29.0696C54.4998 29.0479 54.498 29.0842 54.498 27.3082C54.498 26.1314 54.498 24.9547 54.498 23.7761H54.4998Z" fill="#C5C5C5"/>
<path d="M105.152 23.6599C105.152 22.2108 105.18 20.7598 105.14 19.3107C105.12 18.5498 105.428 18.3173 106.158 18.3173C107.885 18.3155 107.885 18.2865 107.885 20.0479C107.885 22.6756 107.858 25.3052 107.9 27.931C107.914 28.8136 107.584 29.1514 106.734 29.0569C106.494 29.0315 106.251 29.0388 106.009 29.0533C105.392 29.0896 105.14 28.8063 105.147 28.1907C105.165 26.6798 105.152 25.1708 105.152 23.6599Z" fill="#C4C4C4"/>
</g>
<defs>
<clipPath id="clip0_5_5686">
<rect width="135.471" height="32" fill="white"/>
</clipPath>
</defs>
</svg>
